# Blender v2.79 (sub 0) OBJ File: 'Coin_D180322.obj'
# www.blender.org
mtllib Coin.mtl
o Coin_N1_Untitled
v 2.398700 0.000000 -0.195240
v 2.316967 0.620829 -0.195240
v 2.077335 1.199350 -0.195240
v 1.696137 1.696137 -0.195240
v 1.199350 2.077336 -0.195240
v 0.620829 2.316967 -0.195240
v 0.000000 2.398700 -0.195240
v -0.620829 2.316967 -0.195240
v -1.199350 2.077336 -0.195240
v -1.696137 1.696138 -0.195240
v -2.077335 1.199351 -0.195240
v -2.316967 0.620830 -0.195240
v -2.398700 0.000001 -0.195240
v -2.316967 -0.620828 -0.195240
v -2.077336 -1.199349 -0.195240
v -1.696138 -1.696136 -0.195240
v -1.199351 -2.077335 -0.195240
v -0.620830 -2.316966 -0.195240
v -0.000001 -2.398700 -0.195240
v 0.620828 -2.316967 -0.195240
v 1.199349 -2.077336 -0.195240
v 1.696136 -1.696138 -0.195240
v 2.077335 -1.199352 -0.195240
v 2.316966 -0.620831 -0.195240
v 2.398700 -0.000000 0.195240
v 2.316967 0.620829 0.195240
v 2.077335 1.199350 0.195240
v 1.696137 1.696137 0.195240
v 1.199350 2.077336 0.195240
v 0.620829 2.316967 0.195240
v 0.000000 2.398700 0.195240
v -0.620829 2.316967 0.195240
v -1.199350 2.077336 0.195240
v -1.696137 1.696138 0.195240
v -2.077335 1.199351 0.195240
v -2.316967 0.620830 0.195240
v -2.398700 0.000001 0.195240
v -2.316967 -0.620828 0.195240
v -2.077336 -1.199349 0.195240
v -1.696138 -1.696136 0.195240
v -1.199351 -2.077335 0.195240
v -0.620830 -2.316966 0.195240
v -0.000001 -2.398700 0.195240
v 0.620828 -2.316967 0.195240
v 1.199349 -2.077336 0.195240
v 1.696136 -1.696138 0.195240
v 2.077335 -1.199352 0.195240
v 2.316966 -0.620831 0.195240
v 1.968499 0.527458 -0.195240
v 2.037940 0.000000 -0.195240
v 1.968499 -0.527459 -0.195240
v 1.764907 -1.018971 -0.195240
v 1.441040 -1.441042 -0.195240
v 1.018969 -1.764909 -0.195240
v 0.527457 -1.968499 -0.195240
v -0.000001 -2.037940 -0.195240
v -0.527458 -1.968499 -0.195240
v -1.018971 -1.764908 -0.195240
v -1.441042 -1.441041 -0.195240
v -1.764909 -1.018969 -0.195240
v -1.968499 -0.527457 -0.195240
v -2.037940 0.000001 -0.195240
v -1.968499 0.527458 -0.195240
v -1.764908 1.018971 -0.195240
v -1.441041 1.441042 -0.195240
v -1.018970 1.764908 -0.195240
v -0.527457 1.968499 -0.195240
v 0.000000 2.037940 -0.195240
v 0.527458 1.968499 -0.195240
v 1.018970 1.764908 -0.195240
v 1.441041 1.441041 -0.195240
v 1.764908 1.018970 -0.195240
v 2.037940 0.000000 0.195240
v 1.968499 0.527458 0.195240
v 1.764908 1.018970 0.195240
v 1.441041 1.441041 0.195240
v 1.018970 1.764908 0.195240
v 0.527458 1.968499 0.195240
v 0.000000 2.037940 0.195240
v -0.527457 1.968499 0.195240
v -1.018970 1.764908 0.195240
v -1.441041 1.441042 0.195240
v -1.764908 1.018971 0.195240
v -1.968499 0.527458 0.195240
v -2.037940 0.000001 0.195240
v -1.968499 -0.527457 0.195240
v -1.764909 -1.018969 0.195240
v -1.441042 -1.441041 0.195240
v -1.018971 -1.764908 0.195240
v -0.527458 -1.968499 0.195240
v -0.000001 -2.037940 0.195240
v 0.527457 -1.968499 0.195240
v 1.018969 -1.764909 0.195240
v 1.441040 -1.441042 0.195240
v 1.764907 -1.018971 0.195240
v 1.968499 -0.527459 0.195240
v 1.968499 0.527458 -0.160197
v 2.037940 0.000000 -0.160197
v 1.968499 -0.527459 -0.160197
v 1.764907 -1.018971 -0.160197
v 1.441040 -1.441042 -0.160197
v 1.018969 -1.764909 -0.160197
v 0.527457 -1.968499 -0.160197
v -0.000001 -2.037940 -0.160197
v -0.527458 -1.968499 -0.160197
v -1.018971 -1.764908 -0.160197
v -1.441042 -1.441041 -0.160197
v -1.764909 -1.018969 -0.160197
v -1.968499 -0.527457 -0.160197
v -2.037940 0.000001 -0.160197
v -1.968499 0.527458 -0.160197
v -1.764908 1.018971 -0.160197
v -1.441041 1.441042 -0.160197
v -1.018970 1.764908 -0.160197
v -0.527457 1.968499 -0.160197
v 0.000000 2.037940 -0.160197
v 0.527458 1.968499 -0.160197
v 1.018970 1.764908 -0.160197
v 1.441041 1.441041 -0.160197
v 1.764908 1.018970 -0.160197
v 2.037940 0.000000 0.160197
v 1.968499 0.527458 0.160197
v 1.764908 1.018970 0.160197
v 1.441041 1.441041 0.160197
v 1.018970 1.764908 0.160197
v 0.527458 1.968499 0.160197
v 0.000000 2.037940 0.160197
v -0.527457 1.968499 0.160197
v -1.018970 1.764908 0.160197
v -1.441041 1.441042 0.160197
v -1.764908 1.018971 0.160197
v -1.968499 0.527458 0.160197
v -2.037940 0.000001 0.160197
v -1.968499 -0.527457 0.160197
v -1.764909 -1.018969 0.160197
v -1.441042 -1.441041 0.160197
v -1.018971 -1.764908 0.160197
v -0.527458 -1.968499 0.160197
v -0.000001 -2.037940 0.160197
v 0.527457 -1.968499 0.160197
v 1.018969 -1.764909 0.160197
v 1.441040 -1.441042 0.160197
v 1.764907 -1.018971 0.160197
v 1.968499 -0.527459 0.160197
vt 0.644351 0.900875
vt 0.702191 0.900888
vt 0.702192 0.943450
vt 0.644352 0.943466
vt 0.760157 0.900888
vt 0.760157 0.943450
vt 0.817997 0.900875
vt 0.817996 0.943466
vt 0.468097 0.948331
vt 0.525936 0.948345
vt 0.525937 0.990907
vt 0.468097 0.990921
vt 0.583901 0.948344
vt 0.583901 0.990907
vt 0.641742 0.948331
vt 0.641741 0.990922
vt 0.822424 0.853117
vt 0.880263 0.853131
vt 0.880264 0.895692
vt 0.822425 0.895707
vt 0.938229 0.853131
vt 0.938229 0.895693
vt 0.996069 0.853117
vt 0.996069 0.895707
vt 0.468098 0.853420
vt 0.525937 0.853436
vt 0.525937 0.895997
vt 0.468097 0.896010
vt 0.583902 0.853435
vt 0.583903 0.895997
vt 0.641742 0.853419
vt 0.641743 0.896010
vt 0.644351 0.853419
vt 0.702190 0.853432
vt 0.702192 0.895993
vt 0.644352 0.896010
vt 0.760157 0.853432
vt 0.760157 0.895993
vt 0.817997 0.853419
vt 0.817996 0.896010
vt 0.822424 0.900572
vt 0.880263 0.900585
vt 0.880265 0.943147
vt 0.822425 0.943163
vt 0.938229 0.900585
vt 0.938229 0.943147
vt 0.996070 0.900572
vt 0.996069 0.943163
vt 0.644350 0.948331
vt 0.702189 0.948343
vt 0.702191 0.990905
vt 0.644351 0.990921
vt 0.760155 0.948343
vt 0.760155 0.990905
vt 0.817996 0.948331
vt 0.817994 0.990921
vt 0.468097 0.900875
vt 0.525937 0.900888
vt 0.525938 0.943450
vt 0.468099 0.943466
vt 0.583903 0.900888
vt 0.583902 0.943450
vt 0.641743 0.900875
vt 0.641742 0.943466
vt 0.881575 0.735993
vt 0.849063 0.778364
vt 0.806692 0.810876
vt 0.757351 0.831313
vt 0.704401 0.838284
vt 0.651451 0.831313
vt 0.602110 0.810875
vt 0.559739 0.778363
vt 0.527227 0.735993
vt 0.506789 0.686651
vt 0.499818 0.633701
vt 0.506789 0.580752
vt 0.527227 0.531410
vt 0.559739 0.489040
vt 0.602110 0.456528
vt 0.651451 0.436090
vt 0.704401 0.429119
vt 0.757351 0.436090
vt 0.806692 0.456528
vt 0.849063 0.489040
vt 0.881575 0.531410
vt 0.902013 0.580752
vt 0.908984 0.633701
vt 0.902013 0.686652
vt 0.902013 0.268032
vt 0.881575 0.317374
vt 0.849063 0.359744
vt 0.806692 0.392256
vt 0.757351 0.412694
vt 0.704401 0.419665
vt 0.651451 0.412694
vt 0.602110 0.392256
vt 0.559739 0.359744
vt 0.527227 0.317374
vt 0.506789 0.268032
vt 0.499818 0.215082
vt 0.506789 0.162133
vt 0.527227 0.112791
vt 0.559739 0.070421
vt 0.602110 0.037909
vt 0.651451 0.017471
vt 0.704401 0.010500
vt 0.757351 0.017471
vt 0.806692 0.037908
vt 0.849063 0.070420
vt 0.881575 0.112791
vt 0.902013 0.162132
vt 0.908984 0.215082
vt 0.490365 0.742349
vt 0.454149 0.742349
vt 0.447178 0.689399
vt 0.482159 0.680025
vt 0.482159 0.804672
vt 0.447178 0.795299
vt 0.458103 0.862748
vt 0.426740 0.844640
vt 0.419836 0.912619
vt 0.394228 0.887011
vt 0.369965 0.950886
vt 0.351857 0.919523
vt 0.311889 0.974942
vt 0.302516 0.939960
vt 0.249566 0.983147
vt 0.249566 0.946931
vt 0.187243 0.974942
vt 0.196616 0.939960
vt 0.129167 0.950886
vt 0.147275 0.919522
vt 0.079296 0.912619
vt 0.104904 0.887010
vt 0.041028 0.862748
vt 0.072392 0.844640
vt 0.016973 0.804672
vt 0.051954 0.795298
vt 0.008768 0.742348
vt 0.044983 0.742349
vt 0.016973 0.680025
vt 0.051954 0.689399
vt 0.041029 0.621949
vt 0.072392 0.640057
vt 0.079296 0.572079
vt 0.104904 0.597687
vt 0.129167 0.533811
vt 0.147275 0.565175
vt 0.187243 0.509755
vt 0.196616 0.544737
vt 0.249566 0.501550
vt 0.249566 0.537766
vt 0.311889 0.509755
vt 0.302516 0.544737
vt 0.369965 0.533811
vt 0.351857 0.565175
vt 0.419836 0.572079
vt 0.394228 0.597687
vt 0.458104 0.621949
vt 0.426740 0.640057
vt 0.482160 0.313621
vt 0.447178 0.304248
vt 0.454149 0.251298
vt 0.490365 0.251298
vt 0.458104 0.371697
vt 0.426740 0.353589
vt 0.419836 0.421568
vt 0.394228 0.395960
vt 0.369965 0.459836
vt 0.351857 0.428472
vt 0.311889 0.483891
vt 0.302516 0.448910
vt 0.249566 0.492097
vt 0.249566 0.455881
vt 0.187243 0.483892
vt 0.196616 0.448910
vt 0.129167 0.459836
vt 0.147275 0.428472
vt 0.079296 0.421568
vt 0.104904 0.395960
vt 0.041029 0.371697
vt 0.072392 0.353590
vt 0.016973 0.313621
vt 0.051954 0.304248
vt 0.008768 0.251298
vt 0.044983 0.251298
vt 0.016973 0.188975
vt 0.051954 0.198348
vt 0.041028 0.130899
vt 0.072392 0.149007
vt 0.079296 0.081028
vt 0.104904 0.106636
vt 0.129167 0.042761
vt 0.147275 0.074124
vt 0.187243 0.018705
vt 0.196616 0.053686
vt 0.249566 0.010500
vt 0.249566 0.046715
vt 0.311889 0.018705
vt 0.302516 0.053686
vt 0.369965 0.042761
vt 0.351857 0.074124
vt 0.419836 0.081028
vt 0.394228 0.106636
vt 0.458104 0.130899
vt 0.426740 0.149007
vt 0.482160 0.188975
vt 0.447178 0.198348
vt 0.219198 0.626065
vt 0.266893 0.626066
vt 0.266893 0.629948
vt 0.219198 0.629947
vt 0.121709 0.631848
vt 0.169409 0.631848
vt 0.169409 0.635736
vt 0.121709 0.635736
vt 0.218779 0.631848
vt 0.218779 0.635736
vt 0.266685 0.631848
vt 0.266685 0.635736
vt 0.121709 0.637635
vt 0.169409 0.637635
vt 0.169409 0.641523
vt 0.121709 0.641523
vt 0.218779 0.637635
vt 0.218779 0.641523
vt 0.266686 0.637635
vt 0.266686 0.641523
vt 0.121709 0.654997
vt 0.169408 0.654997
vt 0.169408 0.658885
vt 0.121709 0.658885
vt 0.218776 0.654997
vt 0.218776 0.658885
vt 0.266681 0.654997
vt 0.266681 0.658885
vt 0.121709 0.683934
vt 0.169409 0.683934
vt 0.169409 0.687822
vt 0.121709 0.687822
vt 0.218777 0.683934
vt 0.218777 0.687822
vt 0.266683 0.683934
vt 0.266683 0.687822
vt 0.121709 0.643423
vt 0.169409 0.643423
vt 0.169409 0.647310
vt 0.121709 0.647310
vt 0.218778 0.643423
vt 0.218778 0.647310
vt 0.266685 0.643423
vt 0.266685 0.647310
vt 0.121709 0.666572
vt 0.169408 0.666572
vt 0.169408 0.670460
vt 0.121709 0.670460
vt 0.218776 0.666572
vt 0.218776 0.670460
vt 0.266681 0.666572
vt 0.266681 0.670460
vt 0.121709 0.678147
vt 0.169408 0.678147
vt 0.169408 0.682034
vt 0.121709 0.682034
vt 0.218777 0.678147
vt 0.218777 0.682034
vt 0.266682 0.678147
vt 0.266682 0.682034
vt 0.121709 0.626066
vt 0.169615 0.626065
vt 0.169615 0.629947
vt 0.121709 0.629949
vt 0.266892 0.618374
vt 0.219197 0.618380
vt 0.219197 0.614497
vt 0.266892 0.614492
vt 0.169614 0.618380
vt 0.169614 0.614498
vt 0.121709 0.618374
vt 0.121709 0.614492
vt 0.266890 0.624162
vt 0.219195 0.624165
vt 0.219195 0.620283
vt 0.266890 0.620280
vt 0.169614 0.624165
vt 0.169614 0.620283
vt 0.121709 0.624162
vt 0.121709 0.620280
vt 0.266682 0.676247
vt 0.218777 0.676247
vt 0.218777 0.672359
vt 0.266682 0.672359
vt 0.169408 0.676247
vt 0.169408 0.672359
vt 0.121709 0.676247
vt 0.121709 0.672359
vt 0.266684 0.699396
vt 0.218778 0.699396
vt 0.218778 0.695508
vt 0.266684 0.695508
vt 0.169409 0.699396
vt 0.169409 0.695508
vt 0.121709 0.699396
vt 0.121709 0.695508
vt 0.266681 0.653098
vt 0.218775 0.653098
vt 0.218775 0.649210
vt 0.266681 0.649210
vt 0.169408 0.653098
vt 0.169408 0.649210
vt 0.121709 0.653098
vt 0.121709 0.649210
vt 0.266683 0.693609
vt 0.218777 0.693609
vt 0.218777 0.689721
vt 0.266683 0.689721
vt 0.169409 0.693609
vt 0.169409 0.689721
vt 0.121709 0.693609
vt 0.121709 0.689721
vt 0.266682 0.664672
vt 0.218777 0.664672
vt 0.218777 0.660784
vt 0.266682 0.660784
vt 0.169408 0.664672
vt 0.169408 0.660784
vt 0.121709 0.664672
vt 0.121709 0.660784
vt 0.266681 0.705184
vt 0.218776 0.705184
vt 0.218776 0.701296
vt 0.266681 0.701296
vt 0.169408 0.705184
vt 0.169408 0.701296
vt 0.121709 0.705184
vt 0.121709 0.701296
vn 1.0000 -0.0000 0.0000
vn 0.9659 0.2588 0.0000
vn 0.8660 0.5000 0.0000
vn 0.7071 0.7071 0.0000
vn 0.5000 0.8660 0.0000
vn 0.2588 0.9659 -0.0000
vn 0.0000 1.0000 -0.0000
vn -0.2588 0.9659 0.0000
vn -0.5000 0.8660 0.0000
vn -0.7071 0.7071 0.0000
vn -0.8660 0.5000 0.0000
vn -0.9659 0.2588 0.0000
vn -1.0000 0.0000 0.0000
vn -0.9659 -0.2588 0.0000
vn -0.8660 -0.5000 0.0000
vn -0.7071 -0.7071 0.0000
vn -0.5000 -0.8660 0.0000
vn -0.2588 -0.9659 0.0000
vn -0.0000 -1.0000 0.0000
vn 0.2588 -0.9659 0.0000
vn 0.5000 -0.8660 0.0000
vn 0.7071 -0.7071 0.0000
vn 0.8660 -0.5000 0.0000
vn 0.9659 -0.2588 0.0000
vn 0.0000 0.0000 -1.0000
vn -0.0000 -0.0000 1.0000
usemtl Coin_N1.001
s 1
f 1/1/1 2/2/2 26/3/2
f 26/3/2 25/4/1 1/1/1
f 2/2/2 3/5/3 27/6/3
f 27/6/3 26/3/2 2/2/2
f 3/5/3 4/7/4 28/8/4
f 28/8/4 27/6/3 3/5/3
f 4/9/4 5/10/5 29/11/5
f 29/11/5 28/12/4 4/9/4
f 5/10/5 6/13/6 30/14/6
f 30/14/6 29/11/5 5/10/5
f 6/13/6 7/15/7 31/16/7
f 31/16/7 30/14/6 6/13/6
f 7/17/7 8/18/8 32/19/8
f 32/19/8 31/20/7 7/17/7
f 8/18/8 9/21/9 33/22/9
f 33/22/9 32/19/8 8/18/8
f 9/21/9 10/23/10 34/24/10
f 34/24/10 33/22/9 9/21/9
f 10/25/10 11/26/11 35/27/11
f 35/27/11 34/28/10 10/25/10
f 11/26/11 12/29/12 36/30/12
f 36/30/12 35/27/11 11/26/11
f 12/29/12 13/31/13 37/32/13
f 37/32/13 36/30/12 12/29/12
f 13/33/13 14/34/14 38/35/14
f 38/35/14 37/36/13 13/33/13
f 14/34/14 15/37/15 39/38/15
f 39/38/15 38/35/14 14/34/14
f 15/37/15 16/39/16 40/40/16
f 40/40/16 39/38/15 15/37/15
f 16/41/16 17/42/17 41/43/17
f 41/43/17 40/44/16 16/41/16
f 17/42/17 18/45/18 42/46/18
f 42/46/18 41/43/17 17/42/17
f 18/45/18 19/47/19 43/48/19
f 43/48/19 42/46/18 18/45/18
f 19/49/19 20/50/20 44/51/20
f 44/51/20 43/52/19 19/49/19
f 20/50/20 21/53/21 45/54/21
f 45/54/21 44/51/20 20/50/20
f 21/53/21 22/55/22 46/56/22
f 46/56/22 45/54/21 21/53/21
f 22/57/22 23/58/23 47/59/23
f 47/59/23 46/60/22 22/57/22
f 23/58/23 24/61/24 48/62/24
f 48/62/24 47/59/23 23/58/23
f 24/61/24 1/63/1 25/64/1
f 25/64/1 48/62/24 24/61/24
f 100/65/25 101/66/25 102/67/25
f 102/67/25 103/68/25 104/69/25
f 104/69/25 105/70/25 106/71/25
f 102/67/25 104/69/25 106/71/25
f 106/71/25 107/72/25 108/73/25
f 108/73/25 109/74/25 110/75/25
f 106/71/25 108/73/25 110/75/25
f 110/75/25 111/76/25 112/77/25
f 112/77/25 113/78/25 114/79/25
f 110/75/25 112/77/25 114/79/25
f 106/71/25 110/75/25 114/79/25
f 114/79/25 115/80/25 116/81/25
f 116/81/25 117/82/25 118/83/25
f 114/79/25 116/81/25 118/83/25
f 118/83/25 119/84/25 120/85/25
f 120/85/25 97/86/25 98/87/25
f 118/83/25 120/85/25 98/87/25
f 114/79/25 118/83/25 98/87/25
f 106/71/25 114/79/25 98/87/25
f 102/67/25 106/71/25 98/87/25
f 100/65/25 102/67/25 98/87/25
f 99/88/25 100/65/25 98/87/25
f 122/89/26 123/90/26 124/91/26
f 124/91/26 125/92/26 126/93/26
f 126/93/26 127/94/26 128/95/26
f 124/91/26 126/93/26 128/95/26
f 128/95/26 129/96/26 130/97/26
f 130/97/26 131/98/26 132/99/26
f 128/95/26 130/97/26 132/99/26
f 132/99/26 133/100/26 134/101/26
f 134/101/26 135/102/26 136/103/26
f 132/99/26 134/101/26 136/103/26
f 128/95/26 132/99/26 136/103/26
f 136/103/26 137/104/26 138/105/26
f 138/105/26 139/106/26 140/107/26
f 136/103/26 138/105/26 140/107/26
f 140/107/26 141/108/26 142/109/26
f 142/109/26 143/110/26 144/111/26
f 140/107/26 142/109/26 144/111/26
f 136/103/26 140/107/26 144/111/26
f 128/95/26 136/103/26 144/111/26
f 124/91/26 128/95/26 144/111/26
f 122/89/26 124/91/26 144/111/26
f 121/112/26 122/89/26 144/111/26
f 1/113/25 50/114/25 49/115/25
f 49/115/25 2/116/25 1/113/25
f 24/117/25 51/118/25 50/114/25
f 50/114/25 1/113/25 24/117/25
f 23/119/25 52/120/25 51/118/25
f 51/118/25 24/117/25 23/119/25
f 22/121/25 53/122/25 52/120/25
f 52/120/25 23/119/25 22/121/25
f 21/123/25 54/124/25 53/122/25
f 53/122/25 22/121/25 21/123/25
f 20/125/25 55/126/25 54/124/25
f 54/124/25 21/123/25 20/125/25
f 19/127/25 56/128/25 55/126/25
f 55/126/25 20/125/25 19/127/25
f 18/129/25 57/130/25 56/128/25
f 56/128/25 19/127/25 18/129/25
f 17/131/25 58/132/25 57/130/25
f 57/130/25 18/129/25 17/131/25
f 16/133/25 59/134/25 58/132/25
f 58/132/25 17/131/25 16/133/25
f 15/135/25 60/136/25 59/134/25
f 59/134/25 16/133/25 15/135/25
f 14/137/25 61/138/25 60/136/25
f 60/136/25 15/135/25 14/137/25
f 13/139/25 62/140/25 61/138/25
f 61/138/25 14/137/25 13/139/25
f 12/141/25 63/142/25 62/140/25
f 62/140/25 13/139/25 12/141/25
f 11/143/25 64/144/25 63/142/25
f 63/142/25 12/141/25 11/143/25
f 10/145/25 65/146/25 64/144/25
f 64/144/25 11/143/25 10/145/25
f 9/147/25 66/148/25 65/146/25
f 65/146/25 10/145/25 9/147/25
f 8/149/25 67/150/25 66/148/25
f 66/148/25 9/147/25 8/149/25
f 7/151/25 68/152/25 67/150/25
f 67/150/25 8/149/25 7/151/25
f 6/153/25 69/154/25 68/152/25
f 68/152/25 7/151/25 6/153/25
f 5/155/25 70/156/25 69/154/25
f 69/154/25 6/153/25 5/155/25
f 4/157/25 71/158/25 70/156/25
f 70/156/25 5/155/25 4/157/25
f 3/159/25 72/160/25 71/158/25
f 71/158/25 4/157/25 3/159/25
f 2/116/25 49/115/25 72/160/25
f 72/160/25 3/159/25 2/116/25
f 26/161/26 74/162/26 73/163/26
f 73/163/26 25/164/26 26/161/26
f 27/165/26 75/166/26 74/162/26
f 74/162/26 26/161/26 27/165/26
f 28/167/26 76/168/26 75/166/26
f 75/166/26 27/165/26 28/167/26
f 29/169/26 77/170/26 76/168/26
f 76/168/26 28/167/26 29/169/26
f 30/171/26 78/172/26 77/170/26
f 77/170/26 29/169/26 30/171/26
f 31/173/26 79/174/26 78/172/26
f 78/172/26 30/171/26 31/173/26
f 32/175/26 80/176/26 79/174/26
f 79/174/26 31/173/26 32/175/26
f 33/177/26 81/178/26 80/176/26
f 80/176/26 32/175/26 33/177/26
f 34/179/26 82/180/26 81/178/26
f 81/178/26 33/177/26 34/179/26
f 35/181/26 83/182/26 82/180/26
f 82/180/26 34/179/26 35/181/26
f 36/183/26 84/184/26 83/182/26
f 83/182/26 35/181/26 36/183/26
f 37/185/26 85/186/26 84/184/26
f 84/184/26 36/183/26 37/185/26
f 38/187/26 86/188/26 85/186/26
f 85/186/26 37/185/26 38/187/26
f 39/189/26 87/190/26 86/188/26
f 86/188/26 38/187/26 39/189/26
f 40/191/26 88/192/26 87/190/26
f 87/190/26 39/189/26 40/191/26
f 41/193/26 89/194/26 88/192/26
f 88/192/26 40/191/26 41/193/26
f 42/195/26 90/196/26 89/194/26
f 89/194/26 41/193/26 42/195/26
f 43/197/26 91/198/26 90/196/26
f 90/196/26 42/195/26 43/197/26
f 44/199/26 92/200/26 91/198/26
f 91/198/26 43/197/26 44/199/26
f 45/201/26 93/202/26 92/200/26
f 92/200/26 44/199/26 45/201/26
f 46/203/26 94/204/26 93/202/26
f 93/202/26 45/201/26 46/203/26
f 47/205/26 95/206/26 94/204/26
f 94/204/26 46/203/26 47/205/26
f 48/207/26 96/208/26 95/206/26
f 95/206/26 47/205/26 48/207/26
f 25/164/26 73/163/26 96/208/26
f 96/208/26 48/207/26 25/164/26
f 49/209/14 50/210/13 98/211/13
f 98/211/13 97/212/14 49/209/14
f 50/213/13 51/214/12 99/215/12
f 99/215/12 98/216/13 50/213/13
f 51/214/12 52/217/11 100/218/11
f 100/218/11 99/215/12 51/214/12
f 52/217/11 53/219/10 101/220/10
f 101/220/10 100/218/11 52/217/11
f 53/221/10 54/222/9 102/223/9
f 102/223/9 101/224/10 53/221/10
f 54/222/9 55/225/8 103/226/8
f 103/226/8 102/223/9 54/222/9
f 55/225/8 56/227/7 104/228/7
f 104/228/7 103/226/8 55/225/8
f 56/229/7 57/230/6 105/231/6
f 105/231/6 104/232/7 56/229/7
f 57/230/6 58/233/5 106/234/5
f 106/234/5 105/231/6 57/230/6
f 58/233/5 59/235/4 107/236/4
f 107/236/4 106/234/5 58/233/5
f 59/237/4 60/238/3 108/239/3
f 108/239/3 107/240/4 59/237/4
f 60/238/3 61/241/2 109/242/2
f 109/242/2 108/239/3 60/238/3
f 61/241/2 62/243/1 110/244/1
f 110/244/1 109/242/2 61/241/2
f 62/245/1 63/246/24 111/247/24
f 111/247/24 110/248/1 62/245/1
f 63/246/24 64/249/23 112/250/23
f 112/250/23 111/247/24 63/246/24
f 64/249/23 65/251/22 113/252/22
f 113/252/22 112/250/23 64/249/23
f 65/253/22 66/254/21 114/255/21
f 114/255/21 113/256/22 65/253/22
f 66/254/21 67/257/20 115/258/20
f 115/258/20 114/255/21 66/254/21
f 67/257/20 68/259/19 116/260/19
f 116/260/19 115/258/20 67/257/20
f 68/261/19 69/262/18 117/263/18
f 117/263/18 116/264/19 68/261/19
f 69/262/18 70/265/17 118/266/17
f 118/266/17 117/263/18 69/262/18
f 70/265/17 71/267/16 119/268/16
f 119/268/16 118/266/17 70/265/17
f 71/269/16 72/270/15 120/271/15
f 120/271/15 119/272/16 71/269/16
f 72/270/15 49/209/14 97/212/14
f 97/212/14 120/271/15 72/270/15
f 73/273/13 74/274/14 122/275/14
f 122/275/14 121/276/13 73/273/13
f 74/274/14 75/277/15 123/278/15
f 123/278/15 122/275/14 74/274/14
f 75/277/15 76/279/16 124/280/16
f 124/280/16 123/278/15 75/277/15
f 76/281/16 77/282/17 125/283/17
f 125/283/17 124/284/16 76/281/16
f 77/282/17 78/285/18 126/286/18
f 126/286/18 125/283/17 77/282/17
f 78/285/18 79/287/19 127/288/19
f 127/288/19 126/286/18 78/285/18
f 79/289/19 80/290/20 128/291/20
f 128/291/20 127/292/19 79/289/19
f 80/290/20 81/293/21 129/294/21
f 129/294/21 128/291/20 80/290/20
f 81/293/21 82/295/22 130/296/22
f 130/296/22 129/294/21 81/293/21
f 82/297/22 83/298/23 131/299/23
f 131/299/23 130/300/22 82/297/22
f 83/298/23 84/301/24 132/302/24
f 132/302/24 131/299/23 83/298/23
f 84/301/24 85/303/1 133/304/1
f 133/304/1 132/302/24 84/301/24
f 85/305/1 86/306/2 134/307/2
f 134/307/2 133/308/1 85/305/1
f 86/306/2 87/309/3 135/310/3
f 135/310/3 134/307/2 86/306/2
f 87/309/3 88/311/4 136/312/4
f 136/312/4 135/310/3 87/309/3
f 88/313/4 89/314/5 137/315/5
f 137/315/5 136/316/4 88/313/4
f 89/314/5 90/317/6 138/318/6
f 138/318/6 137/315/5 89/314/5
f 90/317/6 91/319/7 139/320/7
f 139/320/7 138/318/6 90/317/6
f 91/321/7 92/322/8 140/323/8
f 140/323/8 139/324/7 91/321/7
f 92/322/8 93/325/9 141/326/9
f 141/326/9 140/323/8 92/322/8
f 93/325/9 94/327/10 142/328/10
f 142/328/10 141/326/9 93/325/9
f 94/329/10 95/330/11 143/331/11
f 143/331/11 142/332/10 94/329/10
f 95/330/11 96/333/12 144/334/12
f 144/334/12 143/331/11 95/330/11
f 96/333/12 73/335/13 121/336/13
f 121/336/13 144/334/12 96/333/12
