# Blender v2.79 (sub 0) OBJ File: ''
# www.blender.org
mtllib test.mtl
o Cube
v 1.000000 -1.000000 -1.000000
v 1.000000 -1.000000 1.000000
v -1.000000 -1.000000 1.000000
v -1.000000 -1.000000 -1.000000
v 2.382434 1.000000 -0.999999
v 0.999999 -0.281543 1.000001
v -1.000000 1.000000 1.000000
v -1.000000 1.000000 -1.000000
vn 0.0000 -1.0000 0.0000
vn -0.0000 0.8420 0.5395
vn 1.0000 0.0000 0.0000
vn 0.0000 -0.0000 1.0000
vn -1.0000 -0.0000 -0.0000
vn 0.0000 0.0000 -1.0000
vn 0.5395 0.8420 0.0000
vn 0.8060 -0.5571 0.2001
usemtl Material
s off
f 2//1 4//1 1//1
f 8//2 6//2 5//2
f 1//3 6//3 2//3
f 6//4 3//4 2//4
f 3//5 8//5 4//5
f 1//6 8//6 5//6
f 2//1 3//1 4//1
f 8//7 7//7 6//7
f 1//8 5//8 6//8
f 6//4 7//4 3//4
f 3//5 7//5 8//5
f 1//6 4//6 8//6
